inDegrees=no
num_controls=7
num_derivatives=13
num_iterations=191
num_multipliers=7
num_parameters=0
num_slacks=7
num_states=26
objective=6.489167
objective_accelerations=0.748475
objective_balance=0.040520
objective_effort=0.564916
objective_height=5.090531
objective_ligament=0.044725
solver_duration=1681.836108
status=Solve_Succeeded
success=true
DataType=double
version=3
OpenSimVersion=4.4-2022-07-23-0e9fedc
endheader
time	/jointset/ground_pelvis/pelvis_tilt/value	/jointset/ground_pelvis/pelvis_tx/value	/jointset/ground_pelvis/pelvis_ty/value	/jointset/hip_r/hip_flexion_r/value	/jointset/hip_r/hip_adduction_r/value	/jointset/hip_r/hip_rotation_r/value	/jointset/back/lumbar_extension/value	/jointset/patellofemoral_r/patellar_flexion_r/value	/jointset/knee_r/knee_flexion_r/value	/jointset/knee_r/knee_adduction_r/value	/jointset/knee_r/knee_rotation_r/value	/jointset/ankle_r/ankle_angle_r/value	/jointset/subtalar_r/subtalar_angle_r/value	/jointset/ground_pelvis/pelvis_tilt/speed	/jointset/ground_pelvis/pelvis_tx/speed	/jointset/ground_pelvis/pelvis_ty/speed	/jointset/hip_r/hip_flexion_r/speed	/jointset/hip_r/hip_adduction_r/speed	/jointset/hip_r/hip_rotation_r/speed	/jointset/back/lumbar_extension/speed	/jointset/patellofemoral_r/patellar_flexion_r/speed	/jointset/knee_r/knee_flexion_r/speed	/jointset/knee_r/knee_adduction_r/speed	/jointset/knee_r/knee_rotation_r/speed	/jointset/ankle_r/ankle_angle_r/speed	/jointset/subtalar_r/subtalar_angle_r/speed	/forceset/tau_hip_flexion_r	/forceset/tau_hip_adduction_r	/forceset/tau_hip_rotation_r	/forceset/tau_knee_flexion_r	/forceset/tau_ankle_angle_r	/forceset/tau_subtalar_angle_r	/forceset/tau_lumbar_extension	lambda_cid13_p0	lambda_cid14_p0	lambda_cid14_p1	lambda_cid14_p2	lambda_cid14_p3	lambda_cid14_p4	lambda_cid14_p5	/jointset/ground_pelvis/pelvis_tilt/accel	/jointset/ground_pelvis/pelvis_tx/accel	/jointset/ground_pelvis/pelvis_ty/accel	/jointset/hip_r/hip_flexion_r/accel	/jointset/hip_r/hip_adduction_r/accel	/jointset/hip_r/hip_rotation_r/accel	/jointset/back/lumbar_extension/accel	/jointset/patellofemoral_r/patellar_flexion_r/accel	/jointset/knee_r/knee_flexion_r/accel	/jointset/knee_r/knee_adduction_r/accel	/jointset/knee_r/knee_rotation_r/accel	/jointset/ankle_r/ankle_angle_r/accel	/jointset/subtalar_r/subtalar_angle_r/accel	gamma_cid13_p0	gamma_cid14_p0	gamma_cid14_p1	gamma_cid14_p2	gamma_cid14_p3	gamma_cid14_p4	gamma_cid14_p5
1.5	-0.2021163906719827	0.01508823126927763	0.8187580091621339	0.9488144232743901	-0.2204237442449218	-0.1280721769729404	-0.3065604376818199	0.8372422583336068	0.8372422583336384	-0.01377059445340372	0.1745326302787185	0.2717817463621204	0.07211033733526137	0.4693797348156236	0.201864470931112	0.5545951444196474	-2.207013637949099	0.006772325473714912	-0.241273357473397	0.6996039263504228	-2.25816090862673	-2.258160908626542	0.4351289797100594	-1.143254688359038e-05	-0.631135571706265	-0.1836750449997737	-0.128460380932589	-0.02249067684151001	0.01192790132509102	-0.3498907495163261	0.08816932697827311	-0.002482881826579743	0.1655643127675487	-22.91203793786988	-11.88914098453735	-0.2719170186416613	-2.795586787034847	-2.834810872762289	-645.0576371813879	62.34422983043622	0.4149502500911396	0.6011299933085017	-0.7083918477689649	-1.194001331372837	-0.1646260541563873	-0.8078694864940799	1.707040254835655	-1.334027337061078	-1.334027337061067	0.4194370686545728	-0.04684190617623733	-0.7423180903971026	-0.2672289120305137	1.673289936132267e-07	-1.989155730008788e-08	-2.51140045170122e-06	-1.310471591233504e-07	3.002893244340272e-07	1.332009239669438e-07	-1.36453064492272e-06
1.51	-0.1974024212259666	0.01713672134788615	0.8242673448311287	0.9266870685669341	-0.2203648299349036	-0.1305279415430245	-0.2994803221639266	0.8145968147060684	0.8145968147060907	-0.009399042676134632	0.1745329251994329	0.2654341230108735	0.07025985927218549	0.4733314685935706	0.2078071555688022	0.5471512133742782	-2.218162871331489	0.00500654719645971	-0.2498273521034926	0.7163130927661981	-2.270614257690894	-2.270614257690791	0.4392180809916307	3.913936016931837e-05	-0.6382859580343354	-0.1863848937286629	-0.1206597891137459	-0.02487131426308309	0.0117651607695349	-0.3460950181373175	0.09170310792760809	-0.003406369046822398	0.158593258142945	-24.36933863882184	-10.49570294742955	-0.2798468136401339	-2.964699688234452	-3.432592529671654	-639.6067727972746	62.45563015742839	0.3728764389726737	0.586960331314167	-0.7804956868309986	-1.031228163677666	-0.1835219608228219	-0.8711768516646105	1.636942165650058	-1.153989589578765	-1.153989589591528	0.4086810250608898	0.02589317483213807	-0.685836283406598	-0.2680877251604479	1.716559343444798e-07	-6.879379603009335e-08	-2.877244952742267e-06	-5.660930918344045e-07	3.694498243054438e-07	9.296290137735234e-08	-1.444283628342047e-06
1.52	-0.1926514161427058	0.01924386279933455	0.8296986207988877	0.9044570527612529	-0.2203237670569208	-0.1330676485394885	-0.2922362975157354	0.7918362374081914	0.7918362374082034	-0.004985593012619085	0.1745327188692926	0.259018108320467	0.06838323774745224	0.476786862264565	0.2135947454990885	0.538983204172504	-2.227545857594106	0.00320203906669446	-0.2580618427494805	0.7323857524100367	-2.281187642694449	-2.281187642694432	0.443508556959301	-0.0001148313053343785	-0.6448138395381895	-0.1889037373312452	-0.1128591972949036	-0.02725195168465409	0.01160242021397505	-0.3422992867583091	0.09523688887694366	-0.004329856267061976	0.1516222035183404	-25.80820162580211	-9.108900434163166	-0.2889502189138409	-3.133610510832662	-4.019290055804439	-634.2542431068711	62.60140082749579	0.3156822287005997	0.5701110518277021	-0.853207479049953	-0.8407519074183452	-0.1723720246583955	-0.743968689672531	1.579738900448288	-0.9580345249395131	-0.9580345249395061	0.4597120058743593	-0.08775042068755994	-0.6178171255538383	-0.2290278867691537	1.578736441715159e-07	-2.018152484896802e-07	-3.510537237349631e-06	-1.669656469897019e-06	5.237545730611868e-07	-3.092458165070639e-08	-1.474413885116239e-06
1.53	-0.1878684041309228	0.02140788870333315	0.8350446230746255	0.8821425829957472	-0.2202999277691772	-0.1356929133575311	-0.2848347307224575	0.7689795018394613	0.7689795018394553	-0.0005331595230137246	0.1745324632330324	0.2525401634903529	0.06648387114602193	0.4797426454199595	0.2191628744719284	0.530101600365076	-2.235028252013684	0.001570410925364927	-0.2669381527071495	0.747804308151122	-2.289816503703957	-2.289816503704035	0.4470035265870294	4.027807605671167e-05	-0.6506754157115135	-0.1909284313431491	-0.1056868034135123	-0.02786549473436926	0.01118740146098185	-0.3372380782342682	0.09704024639466328	-0.006039200853903958	0.1450387472312497	-27.22502244281893	-8.336278092631124	-0.8138301436489337	-3.143834058231695	-3.994848625612313	-629.0074533624328	61.58129803014666	0.2745499363055133	0.543209608468724	-0.9230559419089036	-0.6540655722745249	-0.1589846494238727	-0.9516828735158069	1.504419196781237	-0.7638882210560788	-0.7638882210703539	0.2973011765954523	0.06274777167527934	-0.5552156658871398	-0.1843175059147651	1.248502961628219e-07	-4.242133655369465e-07	-4.427992791996203e-06	-3.483519633645659e-06	7.685250862565259e-07	-2.436896163946356e-07	-1.451819994829978e-06
1.54	-0.1830580295721166	0.02362620505475147	0.840298325490225	0.8597628728134363	-0.2202924900509578	-0.1384053854200905	-0.2772826773146003	0.7460467623942171	0.7460467623941907	0.003954806009944429	0.1745328799213843	0.2460066253379724	0.06456523213496984	0.482259371669219	0.224452834983032	0.5205232321448642	-2.24059394095514	-7.82748381106712e-05	-0.275503291652887	0.7624830753259109	-2.29638841799745	-2.296388417997623	0.450614965629692	1.963362236135133e-05	-0.6559325039914561	-0.1927582192556036	-0.09851440953212127	-0.02847903778408312	0.01077238270797086	-0.3321768697102273	0.09884360391238346	-0.007748545440743757	0.1384552909441585	-28.61719734015919	-7.569446495325778	-1.338957516932757	-3.15488840479459	-3.949534811534044	-623.8652470253452	60.51975167569446	0.2278708474736225	0.5144773594804303	-0.9925603616066926	-0.4574108117937752	-0.1757835490876058	-0.6817344872862063	1.431781187189027	-0.5466451817365272	-0.5466451817365267	0.4830058888611832	-0.1229011877048519	-0.4969195468775677	-0.1900466668792953	1.079325424322278e-07	-5.508042482473817e-07	-4.956637286581371e-06	-4.562052447600294e-06	9.056793255967479e-07	-3.730133511614219e-07	-1.353535575581388e-06
